<svg xmlns="http://www.w3.org/2000/svg" viewBox="0 0 752 80"><symbol id="icon-arrow-down" viewBox="0 0 32 32"><path d="M3.76 9.143 0 12.622l16 14.806 16-14.806-3.76-3.479L16 20.445z"/></symbol><symbol id="icon-arrow-next" viewBox="0 0 32 32"><path d="M18.425 16 7.111 27.314l3.232 3.232L24.889 16 10.343 1.454 7.111 4.686z"/></symbol><symbol id="icon-arrow-prev" viewBox="0 0 32 32"><path d="m13.575 16 11.314 11.314-3.232 3.232L7.111 16 21.657 1.454l3.232 3.232z"/></symbol><symbol id="icon-arrow-up" viewBox="0 0 32 32"><path d="M3.76 25.143 0 21.664 16 6.858l16 14.806-3.76 3.479L16 13.841z"/></symbol><symbol id="icon-calendar" viewBox="0 0 32 32"><path d="M22.667 4H28a1.335 1.335 0 0 1 1.334 1.334v21.333A1.335 1.335 0 0 1 28 28.001H4a1.33 1.33 0 0 1-1.333-1.334V5.334A1.333 1.333 0 0 1 4 4h5.333V1.333H12V4h8V1.333h2.667zm4 10.667H5.334v10.667h21.333zm-6.667-8h-8v2.667H9.333V6.667h-4V12h21.333V6.667h-4v2.667h-2.667zM8 17.333h2.667V20H8zm6.667 0h2.667V20h-2.667zm6.666 0H24V20h-2.667z"/></symbol><symbol id="icon-favorite" viewBox="0 0 32 32"><path fill="#4440f6" d="M32 16c0 8.837-7.163 16-16 16S0 24.837 0 16 7.163 0 16 0s16 7.163 16 16z"/><path fill="#f4f4f4" d="M12.287 8.748a4.627 4.627 0 0 0-3.271 7.897l.797.795 5.834 5.834a.499.499 0 0 0 .708 0l6.631-6.629c.43-.429.769-.941 1.002-1.502a4.614 4.614 0 0 0-1.002-5.042 4.638 4.638 0 0 0-5.043-1.002 4.63 4.63 0 0 0-1.5 1.002l-.441.441-.441-.441a4.629 4.629 0 0 0-3.271-1.355zm0 1c.962 0 1.884.382 2.564 1.063l.795.795a.499.499 0 0 0 .708 0l.795-.795a3.635 3.635 0 0 1 2.565-1.062c.477 0 .947.095 1.387.277a3.624 3.624 0 0 1 2.24 3.35c0 .477-.095.947-.277 1.387-.182.44-.448.841-.785 1.178l-6.277 6.275-6.275-6.275a3.624 3.624 0 0 1 0-5.128A3.628 3.628 0 0 1 12.29 9.75z"/></symbol><symbol id="icon-heart-border" viewBox="0 0 32 32"><path fill="#4440f7" d="M9.332 3c-4.216 0-7.664 3.41-7.664 7.602 0 3.207 1.416 10.638 13.125 17.836l.004.004a2.318 2.318 0 0 0 2.406 0l.004-.004c11.709-7.198 13.125-14.629 13.125-17.836C30.332 6.411 26.884 3 22.668 3 19.11 3 16.9 5.45 16 6.555 15.1 5.45 12.89 3 9.332 3zm0 2c2.957 0 5.867 3.598 5.867 3.598a.998.998 0 0 0 1.6.003l.002-.003S19.711 5 22.668 5c3.146 0 5.664 2.502 5.664 5.602 0 2.678-.914 9.208-12.168 16.129-.049.03-.107.047-.164.047s-.115-.017-.164-.047C4.582 19.811 3.668 13.28 3.668 10.602 3.668 7.503 6.186 5 9.332 5z"/></symbol><symbol id="icon-heart-fill" viewBox="0 0 32 32"><path fill="#4b48da" d="M9.333 4c-3.681 0-6.667 2.955-6.667 6.6 0 2.943 1.167 9.927 12.651 16.987a1.316 1.316 0 0 0 1.366 0c11.484-7.06 12.651-14.044 12.651-16.987 0-3.645-2.985-6.6-6.667-6.6S16 8 16 8s-2.985-4-6.667-4z"/></symbol><symbol id="icon-home" viewBox="0 0 32 32"><path fill="#4440f6" d="M32 16c0 8.837-7.163 16-16 16S0 24.837 0 16 7.163 0 16 0s16 7.163 16 16z"/><path fill="#f4f4f4" d="m15.693 8.105-6.75 5.25a.5.5 0 0 0-.193.395V22a2 2 0 0 0 2 2h10.5a2 2 0 0 0 2-2v-8.25a.5.5 0 0 0-.192-.394l-.001-.001-6.75-5.25a.495.495 0 0 0-.615.001l.001-.001zM16 9.133l6.25 4.861V22a1 1 0 0 1-1 1h-10.5a1 1 0 0 1-1-1v-8.006z"/><path fill="#f4f4f4" d="M13.75 15.5a.5.5 0 0 0-.5.5v7.5a.5.5 0 0 0 1 0v-7h3.5v7a.5.5 0 0 0 1 0V16a.5.5 0 0 0-.5-.5z"/></symbol><symbol id="icon-moon" viewBox="0 0 32 32"><path d="M14.842 2.863c-2.486.23-4.856 1.161-6.83 2.688A13.153 13.153 0 0 0 3.224 18.81a13.147 13.147 0 0 0 3.536 6.432v.004a13.141 13.141 0 0 0 13.756 3.066c2.348-.848 4.408-2.346 5.935-4.321s2.458-4.345 2.688-6.83a1.143 1.143 0 0 0-1.818-1.022l.003-.002a8.194 8.194 0 0 1-10.661-.795 8.193 8.193 0 0 1-.795-10.661 1.143 1.143 0 0 0-1.029-1.815h.005zm-1.967 2.795c-.604 1.486-.99 3.047-.869 4.67a10.477 10.477 0 0 0 9.667 9.667c1.622.121 3.184-.265 4.67-.869-.382 1.239-.902 2.429-1.702 3.464a10.849 10.849 0 0 1-10.953 3.955c-2.013-.449-3.854-1.461-5.313-2.92a10.851 10.851 0 0 1-2.536-11.364c.701-1.94 1.94-3.64 3.571-4.902 1.036-.801 2.225-1.32 3.464-1.702z"/></symbol><symbol id="icon-read" viewBox="0 0 32 32"><path fill="#4440f6" d="M32 16c0 8.837-7.163 16-16 16S0 24.837 0 16 7.163 0 16 0s16 7.163 16 16z"/><path fill="#f4f4f4" d="M8.5 8.75a.5.5 0 0 0-.5.5V20.5a.5.5 0 0 0 .5.5h5.25a1.747 1.747 0 0 1 1.75 1.75.5.5 0 0 0 1 0v-10.5a3.503 3.503 0 0 0-3.5-3.5zm.5 1h4a2.5 2.5 0 0 1 2.5 2.5v8.475c-.496-.422-1.094-.725-1.75-.725H9z"/><path fill="#f4f4f4" d="M19 8.75a3.503 3.503 0 0 0-3.5 3.5v10.5a.5.5 0 0 0 1 0A1.747 1.747 0 0 1 18.25 21h5.25a.5.5 0 0 0 .5-.5V9.25a.5.5 0 0 0-.5-.5zm0 1h4V20h-4.75c-.656 0-1.254.302-1.75.725V12.25a2.5 2.5 0 0 1 2.5-2.5z"/></symbol><symbol id="icon-search" viewBox="0 0 32 32"><path d="M14.195 24.418c2.367 0 4.665-.753 6.529-2.138l5.861 5.568 1.885-1.791-5.861-5.568a9.755 9.755 0 0 0 2.252-6.204c0-5.587-4.785-10.133-10.667-10.133S3.527 8.698 3.527 14.285c0 5.587 4.785 10.133 10.667 10.133zm0-17.733c4.412 0 8 3.409 8 7.6s-3.588 7.6-8 7.6-8-3.409-8-7.6 3.588-7.6 8-7.6z"/></symbol><symbol id="icon-sun" viewBox="0 0 32 32"><path d="M16 .634c-.631 0-1.143.512-1.143 1.143v2.586a1.143 1.143 0 0 0 2.286 0V1.777c0-.631-.512-1.143-1.143-1.143zM5.94 4.798c-.315.001-.6.129-.806.336a1.138 1.138 0 0 0 0 1.616L6.97 8.586a1.138 1.138 0 0 0 1.616 0 1.138 1.138 0 0 0 0-1.616L6.75 5.134a1.137 1.137 0 0 0-.809-.336zm20.12 0a1.14 1.14 0 0 0-.809.336L23.415 6.97a1.138 1.138 0 0 0 0 1.616 1.138 1.138 0 0 0 1.616 0l1.836-1.836a1.138 1.138 0 0 0 0-1.616 1.138 1.138 0 0 0-.806-.336zM16 8.393c-4.188 0-7.607 3.419-7.607 7.607s3.419 7.607 7.607 7.607c4.188 0 7.607-3.419 7.607-7.607S20.188 8.393 16 8.393zm0 2.286c2.953 0 5.321 2.369 5.321 5.321S18.952 21.321 16 21.321c-2.953 0-5.321-2.369-5.321-5.321s2.369-5.321 5.321-5.321zM1.777 14.857a1.143 1.143 0 0 0 0 2.286h2.586a1.143 1.143 0 0 0 0-2.286zm25.86 0a1.143 1.143 0 0 0 0 2.286h2.586a1.143 1.143 0 0 0 0-2.286zM7.777 23.08c-.315 0-.6.127-.807.333l-1.836 1.836a1.138 1.138 0 0 0 0 1.616 1.138 1.138 0 0 0 1.616 0l1.836-1.836a1.138 1.138 0 0 0 0-1.616 1.14 1.14 0 0 0-.807-.333h-.003zm16.446 0h-.003a1.138 1.138 0 0 0-.807 1.949l1.836 1.836a1.138 1.138 0 0 0 1.616 0 1.138 1.138 0 0 0 0-1.616l-1.836-1.836a1.14 1.14 0 0 0-.807-.333zM16 26.494c-.631 0-1.143.512-1.143 1.143v2.586a1.143 1.143 0 0 0 2.286 0v-2.586c0-.631-.512-1.143-1.143-1.143z"/></symbol><symbol id="icon-menu" viewBox="0 0 32 32"><path d="M4 14.667a1.333 1.333 0 0 0 0 2.666h24a1.333 1.333 0 0 0 0-2.666zM4 6.667a1.333 1.333 0 0 0 0 2.666h24a1.333 1.333 0 0 0 0-2.666zM4 22.667a1.333 1.333 0 0 0 0 2.666h24a1.333 1.333 0 0 0 0-2.666z"/></symbol><symbol id="icon-close" viewBox="0 0 32 32"><path d="m23.057 7.057-16 16a1.332 1.332 0 0 0 0 1.886 1.332 1.332 0 0 0 1.886 0l16-16a1.332 1.332 0 0 0 0-1.886 1.332 1.332 0 0 0-1.886 0z"/><path d="M8 6.667a1.33 1.33 0 0 0-1.333 1.334c0 .368.149.701.39.943l16 16a1.332 1.332 0 0 0 1.886 0 1.332 1.332 0 0 0 0-1.886l-16-16A1.331 1.331 0 0 0 8 6.667z"/></symbol><symbol id="icon-location" viewBox="0 0 24 32"><path d="M12.16.881C5.603.889.289 6.202.28 12.759v.019c0 2.685.9 5.16 2.414 7.14l-.021-.028s.324.426.376.486l9.11 10.747 9.114-10.749c.047-.058.372-.483.372-.483l.001-.004a11.674 11.674 0 0 0 2.394-7.11v-.015.001C24.033 6.204 18.718.889 12.16.882h-.001zm0 16.199a4.32 4.32 0 1 1 0-8.642 4.32 4.32 0 1 1 0 8.64z"/></symbol><symbol id="icon-eye-allow" viewBox="0 0 32 32"><path fill="#0f4fe6" d="M16 6C9.021 6 2.972 10.064 0 16c2.972 5.936 9.021 10 16 10s13.027-4.064 16-10c-2.972-5.936-9.021-10-16-10zm7.889 5.303A15.212 15.212 0 0 1 28.559 16a15.223 15.223 0 0 1-4.67 4.697C21.527 22.204 18.799 23 16 23s-5.527-.796-7.889-2.303A15.212 15.212 0 0 1 3.441 16a15.223 15.223 0 0 1 5.041-4.925 8 8 0 1 0 15.036 0c.124.074.248.15.371.228zM16 13a3 3 0 1 1-6 0 3 3 0 0 1 6 0z"/></symbol><symbol id="icon-eye-denied" viewBox="0 0 32 32"><path fill="gray" d="M29.561.439a1.5 1.5 0 0 0-2.121 0l-6.318 6.318A17.626 17.626 0 0 0 16 6C9.021 6 2.972 10.064 0 16a18.323 18.323 0 0 0 5.407 6.472L.439 27.44a1.5 1.5 0 1 0 2.122 2.121l27-27a1.5 1.5 0 0 0 0-2.121zM13 10a3 3 0 0 1 2.841 2.037l-3.804 3.804A3 3 0 0 1 13 10zm-9.559 6a15.223 15.223 0 0 1 5.041-4.925A7.985 7.985 0 0 0 8 13.812c0 1.715.54 3.304 1.459 4.607l-1.904 1.904A15.219 15.219 0 0 1 3.441 16zM24 13.813c0-.849-.133-1.667-.378-2.434L13.566 21.435a8 8 0 0 0 10.435-7.622z"/><path fill="gray" d="M25.938 9.062 23.77 11.23l.118.074a15.212 15.212 0 0 1 4.67 4.697 15.223 15.223 0 0 1-4.67 4.697 14.642 14.642 0 0 1-11.45 1.864l-2.403 2.403a17.587 17.587 0 0 0 5.964 1.036c6.978 0 13.027-4.064 16-10a18.292 18.292 0 0 0-6.062-6.938z"/></symbol></svg>