<?xml version="1.0" encoding="utf-8"?>
<svg version="1.1" xmlns="http://www.w3.org/2000/svg" xmlns:xlink="http://www.w3.org/1999/xlink" viewBox="0 0 752 80">
    <symbol id="icon-arrow-down" viewBox="0 0 32 32">
        <path d="M3.76 9.143l-3.76 3.479 16 14.806 16-14.806-3.76-3.479-12.24 11.302z"></path>
    </symbol>
    <symbol id="icon-arrow-next" viewBox="0 0 32 32">
        <path d="M18.425 16l-11.314 11.314 3.232 3.232 14.546-14.546-14.546-14.546-3.232 3.232z"></path>
    </symbol>
    <symbol id="icon-arrow-prev" viewBox="0 0 32 32">
        <path d="M13.575 16l11.314 11.314-3.232 3.232-14.546-14.546 14.546-14.546 3.232 3.232z"></path>
    </symbol>
    <symbol id="icon-arrow-up" viewBox="0 0 32 32">
        <path d="M3.76 25.143l-3.76-3.479 16-14.806 16 14.806-3.76 3.479-12.24-11.302z"></path>
    </symbol>
    <symbol id="icon-calendar" viewBox="0 0 32 32">
        <path
            d="M22.667 4h5.333c0.354 0 0.693 0.14 0.943 0.391s0.391 0.589 0.391 0.943v21.333c0 0.354-0.14 0.693-0.391 0.943s-0.589 0.391-0.943 0.391h-24c-0.354 0-0.693-0.14-0.943-0.391s-0.39-0.589-0.39-0.943v-21.333c0-0.354 0.14-0.693 0.39-0.943s0.589-0.391 0.943-0.391h5.333v-2.667h2.667v2.667h8v-2.667h2.667zM26.667 14.667h-21.333v10.667h21.333zM20 6.667h-8v2.667h-2.667v-2.667h-4v5.333h21.333v-5.333h-4v2.667h-2.667zM8 17.333h2.667v2.667h-2.667zM14.667 17.333h2.667v2.667h-2.667zM21.333 17.333h2.667v2.667h-2.667z">
        </path>
    </symbol>
    <symbol id="icon-favorite" viewBox="0 0 32 32">
        <path fill="#4440f6"
            d="M32 16c0 8.837-7.163 16-16 16v0c-8.837 0-16-7.163-16-16v0c0-8.837 7.163-16 16-16v0c8.837 0 16 7.163 16 16v0z">
        </path>
        <path fill="#f4f4f4"
            d="M12.287 8.748c-1.227 0-2.404 0.488-3.271 1.355s-1.354 2.045-1.354 3.271 0.486 2.404 1.354 3.271l0.797 0.795 5.834 5.834c0.090 0.090 0.215 0.146 0.354 0.146s0.263-0.056 0.354-0.146l6.631-6.629c0.43-0.429 0.769-0.941 1.002-1.502s0.354-1.162 0.354-1.77-0.121-1.208-0.354-1.77c-0.233-0.561-0.572-1.072-1.002-1.502s-0.941-0.769-1.502-1.002c-0.561-0.233-1.162-0.354-1.77-0.354s-1.21 0.121-1.771 0.354c-0.561 0.233-1.070 0.572-1.5 1.002l-0.441 0.441-0.441-0.441c-0.867-0.867-2.045-1.355-3.271-1.355zM12.287 9.748c0.962 0 1.884 0.382 2.564 1.063l0.795 0.795c0.090 0.090 0.215 0.146 0.354 0.146s0.263-0.056 0.354-0.146l0.795-0.795c0.337-0.337 0.736-0.603 1.176-0.785s0.912-0.277 1.389-0.277 0.947 0.095 1.387 0.277c0.44 0.182 0.841 0.448 1.178 0.785s0.603 0.736 0.785 1.176c0.182 0.44 0.277 0.912 0.277 1.389s-0.095 0.947-0.277 1.387c-0.182 0.44-0.448 0.841-0.785 1.178l-6.277 6.275-6.275-6.275c-0.68-0.68-1.063-1.603-1.063-2.564s0.382-1.884 1.063-2.564c0.68-0.679 1.601-1.063 2.563-1.063z">
        </path>
    </symbol>
    <symbol id="icon-heart-border" viewBox="0 0 32 32">
        <path fill="#4440f7"
            d="M9.332 3c-4.216 0-7.664 3.41-7.664 7.602 0 3.207 1.416 10.638 13.125 17.836 0.002 0.002 0.003 0.003 0.004 0.004l-0-0c0.362 0.22 0.779 0.336 1.203 0.336s0.841-0.115 1.203-0.336c0.001-0.001 0.002-0.002 0.004-0.004l0-0c11.709-7.198 13.125-14.629 13.125-17.836 0-4.191-3.448-7.602-7.664-7.602-3.558 0-5.768 2.45-6.668 3.555-0.9-1.105-3.11-3.555-6.668-3.555zM9.332 5c2.957 0 5.867 3.598 5.867 3.598 0.184 0.245 0.474 0.401 0.801 0.401s0.616-0.156 0.799-0.398l0.002-0.003c0 0 2.91-3.598 5.867-3.598 3.146 0 5.664 2.502 5.664 5.602 0 2.678-0.914 9.208-12.168 16.129-0.049 0.030-0.107 0.047-0.164 0.047s-0.115-0.017-0.164-0.047c-11.254-6.92-12.168-13.451-12.168-16.129 0-3.099 2.518-5.602 5.664-5.602z">
        </path>
    </symbol>
    <symbol id="icon-heart-fill" viewBox="0 0 32 32">
        <path fill="#4b48da"
            d="M9.333 4c-3.681 0-6.667 2.955-6.667 6.6 0 2.943 1.167 9.927 12.651 16.987 0.206 0.125 0.442 0.191 0.683 0.191s0.477-0.066 0.683-0.191c11.484-7.060 12.651-14.044 12.651-16.987 0-3.645-2.985-6.6-6.667-6.6s-6.667 4-6.667 4-2.985-4-6.667-4z">
        </path>
    </symbol>
    <symbol id="icon-home" viewBox="0 0 32 32">
        <path fill="#4440f6"
            d="M32 16c0 8.837-7.163 16-16 16v0c-8.837 0-16-7.163-16-16v0c0-8.837 7.163-16 16-16v0c8.837 0 16 7.163 16 16v0z">
        </path>
        <path fill="#f4f4f4"
            d="M15.693 8.105l-6.75 5.25c-0.118 0.092-0.193 0.235-0.193 0.395v8.25c0 0.53 0.211 1.039 0.586 1.414s0.884 0.586 1.414 0.586h10.5c0.53 0 1.039-0.211 1.414-0.586s0.586-0.884 0.586-1.414v-8.25c-0-0.16-0.075-0.302-0.192-0.394l-0.001-0.001-6.75-5.25c-0.084-0.066-0.191-0.105-0.307-0.105s-0.223 0.040-0.308 0.106l0.001-0.001zM16 9.133l6.25 4.861v8.006c0 0.265-0.105 0.519-0.293 0.707s-0.442 0.293-0.707 0.293h-10.5c-0.265 0-0.519-0.105-0.707-0.293s-0.293-0.442-0.293-0.707v-8.006z">
        </path>
        <path fill="#f4f4f4"
            d="M13.75 15.5c-0.276 0-0.5 0.224-0.5 0.5v0 7.5c0 0.276 0.224 0.5 0.5 0.5v0c0.276 0 0.5-0.224 0.5-0.5v0-7h3.5v7c0 0.276 0.224 0.5 0.5 0.5v0c0.276 0 0.5-0.224 0.5-0.5v0-7.5c-0-0.276-0.224-0.5-0.5-0.5v0z">
        </path>
    </symbol>
    <symbol id="icon-moon" viewBox="0 0 32 32">
        <path
            d="M14.842 2.863c-2.486 0.23-4.856 1.161-6.83 2.688s-3.473 3.587-4.321 5.935c-0.848 2.348-1.010 4.888-0.467 7.324s1.771 4.666 3.536 6.432c0 0 0 0.001 0 0.002s0 0.001 0 0.002v-0c1.765 1.765 3.995 2.989 6.432 3.533s4.977 0.381 7.324-0.467c2.348-0.848 4.408-2.346 5.935-4.321s2.458-4.345 2.688-6.83c0.003-0.031 0.005-0.067 0.005-0.103 0-0.631-0.512-1.143-1.143-1.143-0.255 0-0.49 0.083-0.68 0.224l0.003-0.002c-1.578 1.166-3.523 1.726-5.479 1.58s-3.794-0.988-5.182-2.375c-1.387-1.387-2.229-3.225-2.375-5.182s0.414-3.901 1.58-5.479c0.139-0.187 0.222-0.422 0.222-0.677 0-0.631-0.512-1.143-1.143-1.143-0.036 0-0.072 0.002-0.108 0.005l0.005-0zM12.875 5.658c-0.604 1.486-0.99 3.047-0.869 4.67 0.187 2.502 1.265 4.854 3.039 6.628s4.126 2.852 6.628 3.039c1.622 0.121 3.184-0.265 4.67-0.869-0.382 1.239-0.902 2.429-1.702 3.464-1.261 1.632-2.962 2.871-4.902 3.571s-4.038 0.833-6.051 0.384c-2.013-0.449-3.854-1.461-5.313-2.92s-2.471-3.3-2.92-5.313c-0.449-2.013-0.317-4.111 0.384-6.051s1.94-3.64 3.571-4.902c1.036-0.801 2.225-1.32 3.464-1.702z">
        </path>
    </symbol>
    <symbol id="icon-read" viewBox="0 0 32 32">
        <path fill="#4440f6"
            d="M32 16c0 8.837-7.163 16-16 16v0c-8.837 0-16-7.163-16-16v0c0-8.837 7.163-16 16-16v0c8.837 0 16 7.163 16 16v0z">
        </path>
        <path fill="#f4f4f4"
            d="M8.5 8.75c-0.276 0-0.5 0.224-0.5 0.5v0 11.25c0 0.276 0.224 0.5 0.5 0.5h5.25c0.464 0 0.91 0.183 1.238 0.512s0.512 0.774 0.512 1.238c0.004 0.273 0.226 0.493 0.5 0.493s0.496-0.22 0.5-0.493v-10.5c0-0.928-0.369-1.818-1.025-2.475s-1.547-1.025-2.475-1.025zM9 9.75h4c0.663 0 1.299 0.263 1.768 0.732s0.732 1.104 0.732 1.768v8.475c-0.496-0.422-1.094-0.725-1.75-0.725h-4.75z">
        </path>
        <path fill="#f4f4f4"
            d="M19 8.75c-0.928 0-1.818 0.369-2.475 1.025s-1.025 1.547-1.025 2.475v10.5c0.004 0.273 0.226 0.493 0.5 0.493s0.496-0.22 0.5-0.493v-0c0-0.464 0.183-0.91 0.512-1.238s0.774-0.512 1.238-0.512h5.25c0.276-0 0.5-0.224 0.5-0.5v0-11.25c-0-0.276-0.224-0.5-0.5-0.5v0zM19 9.75h4v10.25h-4.75c-0.656 0-1.254 0.302-1.75 0.725v-8.475c0-0.663 0.263-1.299 0.732-1.768s1.104-0.732 1.768-0.732z">
        </path>
    </symbol>
    <symbol id="icon-search" viewBox="0 0 32 32">
        <path
            d="M14.195 24.418c2.367-0 4.665-0.753 6.529-2.138l5.861 5.568 1.885-1.791-5.861-5.568c1.459-1.771 2.251-3.955 2.252-6.204 0-5.587-4.785-10.133-10.667-10.133s-10.667 4.546-10.667 10.133c0 5.587 4.785 10.133 10.667 10.133zM14.195 6.685c4.412 0 8 3.409 8 7.6s-3.588 7.6-8 7.6c-4.412 0-8-3.409-8-7.6s3.588-7.6 8-7.6z">
        </path>
    </symbol>
    <symbol id="icon-sun" viewBox="0 0 32 32">
        <path
            d="M16 0.634c-0.631 0-1.143 0.512-1.143 1.143v0 2.586c0 0.631 0.512 1.143 1.143 1.143v0c0.631 0 1.143-0.512 1.143-1.143v0-2.586c0-0.631-0.512-1.143-1.143-1.143v0zM5.94 4.798c-0.315 0.001-0.6 0.129-0.806 0.336l-0 0c-0.207 0.207-0.335 0.492-0.335 0.808s0.128 0.601 0.335 0.808l1.836 1.836c0.207 0.207 0.492 0.335 0.808 0.335s0.601-0.128 0.808-0.335v0c0.207-0.207 0.335-0.492 0.335-0.808s-0.128-0.601-0.335-0.808l-1.836-1.836c-0.207-0.208-0.493-0.336-0.809-0.336v0zM26.060 4.798c-0.316 0-0.603 0.129-0.809 0.336l-1.836 1.836c-0.207 0.207-0.335 0.492-0.335 0.808s0.128 0.601 0.335 0.808v0c0.207 0.207 0.492 0.335 0.808 0.335s0.601-0.128 0.808-0.335l1.836-1.836c0.207-0.207 0.335-0.492 0.335-0.808s-0.128-0.601-0.335-0.808v0c-0.206-0.207-0.491-0.335-0.806-0.336h-0zM16 8.393c-4.188 0-7.607 3.419-7.607 7.607s3.419 7.607 7.607 7.607c4.188 0 7.607-3.419 7.607-7.607s-3.419-7.607-7.607-7.607zM16 10.679c2.953 0 5.321 2.369 5.321 5.321s-2.369 5.321-5.321 5.321c-2.953 0-5.321-2.369-5.321-5.321s2.369-5.321 5.321-5.321zM1.777 14.857c-0.631 0-1.143 0.512-1.143 1.143v0c0 0.631 0.512 1.143 1.143 1.143h2.586c0.631 0 1.143-0.512 1.143-1.143v0c0-0.631-0.512-1.143-1.143-1.143v0zM27.637 14.857c-0.631 0-1.143 0.512-1.143 1.143v0c0 0.631 0.512 1.143 1.143 1.143v0h2.586c0.631 0 1.143-0.512 1.143-1.143v0c0-0.631-0.512-1.143-1.143-1.143v0zM7.777 23.080c-0.315 0-0.6 0.127-0.807 0.333l-1.836 1.836c-0.207 0.207-0.335 0.492-0.335 0.808s0.128 0.601 0.335 0.808v0c0.207 0.207 0.492 0.335 0.808 0.335s0.601-0.128 0.808-0.335l1.836-1.836c0.207-0.207 0.335-0.492 0.335-0.808s-0.128-0.601-0.335-0.808v0c-0.207-0.206-0.492-0.333-0.807-0.333-0.001 0-0.002 0-0.003 0h0zM24.223 23.080c-0.001 0-0.002 0-0.003 0-0.315 0-0.6 0.127-0.807 0.333l0-0c-0.207 0.207-0.335 0.492-0.335 0.808s0.128 0.601 0.335 0.808l1.836 1.836c0.207 0.207 0.492 0.335 0.808 0.335s0.601-0.128 0.808-0.335v0c0.207-0.207 0.335-0.492 0.335-0.808s-0.128-0.601-0.335-0.808l-1.836-1.836c-0.207-0.206-0.492-0.333-0.807-0.333v0zM16 26.494c-0.631 0-1.143 0.512-1.143 1.143v0 2.586c0 0.631 0.512 1.143 1.143 1.143v0c0.631 0 1.143-0.512 1.143-1.143v0-2.586c0-0.631-0.512-1.143-1.143-1.143v0z">
        </path>
    </symbol>
    <symbol id="icon-menu" viewBox="0 0 32 32">
        <path
            d="M4 14.667c-0.736 0-1.333 0.597-1.333 1.333v0c0 0.736 0.597 1.333 1.333 1.333v0h24c0.736 0 1.333-0.597 1.333-1.333v0c0-0.736-0.597-1.333-1.333-1.333v0z">
        </path>
        <path
            d="M4 6.667c-0.736 0-1.333 0.597-1.333 1.333v0c0 0.736 0.597 1.333 1.333 1.333v0h24c0.736 0 1.333-0.597 1.333-1.333v0c0-0.736-0.597-1.333-1.333-1.333v0z">
        </path>
        <path
            d="M4 22.667c-0.736 0-1.333 0.597-1.333 1.333v0c0 0.736 0.597 1.333 1.333 1.333v0h24c0.736 0 1.333-0.597 1.333-1.333v0c0-0.736-0.597-1.333-1.333-1.333v0z">
        </path>
    </symbol>
    <symbol id="icon-close" viewBox="0 0 32 32">
        <path
            d="M23.057 7.057l-16 16c-0.241 0.241-0.39 0.575-0.39 0.943s0.149 0.701 0.39 0.943v0c0.241 0.241 0.575 0.39 0.943 0.39s0.701-0.149 0.943-0.39l16-16c0.241-0.241 0.39-0.575 0.39-0.943s-0.149-0.701-0.39-0.943v0c-0.241-0.241-0.575-0.39-0.943-0.39s-0.701 0.149-0.943 0.39v0z">
        </path>
        <path
            d="M8 6.667c-0.368 0-0.701 0.149-0.943 0.391v0c-0.241 0.241-0.39 0.575-0.39 0.943s0.149 0.701 0.39 0.943l16 16c0.241 0.241 0.575 0.39 0.943 0.39s0.701-0.149 0.943-0.39v0c0.241-0.241 0.39-0.575 0.39-0.943s-0.149-0.701-0.39-0.943l-16-16c-0.241-0.241-0.575-0.391-0.943-0.391v0z">
    </symbol>
    <symbol id="icon-location" viewBox="0 0 24 32">
        <path
            d="M12.16 0.881c-6.557 0.008-11.871 5.321-11.88 11.878v0.001c0 0.005 0 0.012 0 0.018 0 2.685 0.9 5.16 2.414 7.14l-0.021-0.028s0.324 0.426 0.376 0.486l9.11 10.747 9.114-10.749c0.047-0.058 0.372-0.483 0.372-0.483l0.001-0.004c1.494-1.951 2.394-4.425 2.394-7.11 0-0.005 0-0.010 0-0.015v0.001c-0.007-6.559-5.322-11.874-11.88-11.881h-0.001zM12.16 17.080c-2.386 0-4.321-1.934-4.321-4.321s1.934-4.321 4.321-4.321v0c2.386 0 4.32 1.934 4.32 4.32s-1.934 4.32-4.32 4.32v0z">
        </path>
    </symbol>
    <symbol id="icon-eye-allow" viewBox="0 0 32 32">
        <path fill="#0f4fe6"
            d="M16 6c-6.979 0-13.028 4.064-16 10 2.972 5.936 9.021 10 16 10s13.027-4.064 16-10c-2.972-5.936-9.021-10-16-10zM23.889 11.303c1.88 1.199 3.473 2.805 4.67 4.697-1.197 1.891-2.79 3.498-4.67 4.697-2.362 1.507-5.090 2.303-7.889 2.303s-5.527-0.796-7.889-2.303c-1.88-1.199-3.473-2.805-4.67-4.697 1.197-1.891 2.79-3.498 4.67-4.697 0.122-0.078 0.246-0.154 0.371-0.228-0.311 0.854-0.482 1.776-0.482 2.737 0 4.418 3.582 8 8 8s8-3.582 8-8c0-0.962-0.17-1.883-0.482-2.737 0.124 0.074 0.248 0.15 0.371 0.228v0zM16 13c0 1.657-1.343 3-3 3s-3-1.343-3-3 1.343-3 3-3 3 1.343 3 3z">
        </path>
    </symbol>
    <symbol id="icon-eye-denied" viewBox="0 0 32 32">
        <path fill="#808080"
            d="M29.561 0.439c-0.586-0.586-1.535-0.586-2.121 0l-6.318 6.318c-1.623-0.492-3.342-0.757-5.122-0.757-6.979 0-13.028 4.064-16 10 1.285 2.566 3.145 4.782 5.407 6.472l-4.968 4.968c-0.586 0.586-0.586 1.535 0 2.121 0.293 0.293 0.677 0.439 1.061 0.439s0.768-0.146 1.061-0.439l27-27c0.586-0.586 0.586-1.536 0-2.121zM13 10c1.32 0 2.44 0.853 2.841 2.037l-3.804 3.804c-1.184-0.401-2.037-1.521-2.037-2.841 0-1.657 1.343-3 3-3zM3.441 16c1.197-1.891 2.79-3.498 4.67-4.697 0.122-0.078 0.246-0.154 0.371-0.228-0.311 0.854-0.482 1.776-0.482 2.737 0 1.715 0.54 3.304 1.459 4.607l-1.904 1.904c-1.639-1.151-3.038-2.621-4.114-4.323z">
        </path>
        <path fill="#808080"
            d="M24 13.813c0-0.849-0.133-1.667-0.378-2.434l-10.056 10.056c0.768 0.245 1.586 0.378 2.435 0.378 4.418 0 8-3.582 8-8z">
        </path>
        <path fill="#808080"
            d="M25.938 9.062l-2.168 2.168c0.040 0.025 0.079 0.049 0.118 0.074 1.88 1.199 3.473 2.805 4.67 4.697-1.197 1.891-2.79 3.498-4.67 4.697-2.362 1.507-5.090 2.303-7.889 2.303-1.208 0-2.403-0.149-3.561-0.439l-2.403 2.403c1.866 0.671 3.873 1.036 5.964 1.036 6.978 0 13.027-4.064 16-10-1.407-2.81-3.504-5.2-6.062-6.938z">
        </path>
    </symbol>
</svg>